<mxfile host="drawio-plugin" modified="2024-01-02T20:27:58.165Z" agent="5.0 (Windows NT 6.2; Win64; x64) AppleWebKit/537.36 (KHTML, like Gecko) Chrome/104.0.5112.102 Safari/537.36" etag="Uc7JeBQm9at-cMEm5Dx8" version="20.5.3" type="embed"><diagram id="Ll_qivSYwSle0fyhaXuh" name="Сторінка-1"><mxGraphModel dx="2040" dy="-119" grid="1" gridSize="10" guides="1" tooltips="1" connect="1" arrows="1" fold="1" page="0" pageScale="1" pageWidth="827" pageHeight="1169" background="none" math="0" shadow="0"><root><mxCell id="0"/><mxCell id="1" parent="0"/><mxCell id="lvYG5XQPU5QrbWgYbbsi-60" value="Початок" style="ellipse;whiteSpace=wrap;html=1;labelBackgroundColor=none;fontColor=#FFFFFF;" parent="1" vertex="1"><mxGeometry x="-150" y="460" width="120" height="80" as="geometry"/></mxCell><mxCell id="lvYG5XQPU5QrbWgYbbsi-107" style="edgeStyle=orthogonalEdgeStyle;rounded=0;orthogonalLoop=1;jettySize=auto;html=1;entryX=0.5;entryY=0;entryDx=0;entryDy=0;labelBackgroundColor=none;fontColor=#FFFFFF;" parent="1" source="lvYG5XQPU5QrbWgYbbsi-81" target="lvYG5XQPU5QrbWgYbbsi-82" edge="1"><mxGeometry relative="1" as="geometry"/></mxCell><mxCell id="lvYG5XQPU5QrbWgYbbsi-81" value="Введення:&lt;br&gt;String term" style="shape=parallelogram;perimeter=parallelogramPerimeter;whiteSpace=wrap;html=1;fixedSize=1;labelBackgroundColor=none;fontColor=#FFFFFF;" parent="1" vertex="1"><mxGeometry x="-180" y="590" width="200" height="70" as="geometry"/></mxCell><mxCell id="lvYG5XQPU5QrbWgYbbsi-106" style="edgeStyle=orthogonalEdgeStyle;rounded=0;orthogonalLoop=1;jettySize=auto;html=1;entryX=0.5;entryY=0;entryDx=0;entryDy=0;labelBackgroundColor=none;fontColor=#FFFFFF;" parent="1" source="lvYG5XQPU5QrbWgYbbsi-82" target="lvYG5XQPU5QrbWgYbbsi-84" edge="1"><mxGeometry relative="1" as="geometry"/></mxCell><mxCell id="lvYG5XQPU5QrbWgYbbsi-82" value="term = scanner.nextLine();" style="rounded=0;whiteSpace=wrap;html=1;labelBackgroundColor=none;fontColor=#FFFFFF;" parent="1" vertex="1"><mxGeometry x="-180" y="710" width="200" height="70" as="geometry"/></mxCell><mxCell id="lvYG5XQPU5QrbWgYbbsi-104" style="edgeStyle=orthogonalEdgeStyle;rounded=0;orthogonalLoop=1;jettySize=auto;html=1;entryX=0.5;entryY=0;entryDx=0;entryDy=0;labelBackgroundColor=none;fontColor=#FFFFFF;" parent="1" source="lvYG5XQPU5QrbWgYbbsi-83" target="lvYG5XQPU5QrbWgYbbsi-87" edge="1"><mxGeometry relative="1" as="geometry"/></mxCell><mxCell id="lvYG5XQPU5QrbWgYbbsi-83" value="&lt;h4 style=&quot;&quot;&gt;&lt;span style=&quot;font-weight: normal;&quot;&gt;&lt;font style=&quot;font-size: 11px;&quot;&gt;Введення:&lt;br&gt;&lt;/font&gt;&lt;font style=&quot;font-size: 11px;&quot;&gt;Введіть цифру для обробки:&lt;br&gt; &lt;/font&gt;&lt;font style=&quot;font-size: 11px;&quot;&gt;1 - зашифрувати&lt;br&gt; &lt;/font&gt;&lt;font style=&quot;font-size: 11px;&quot;&gt;2 - розшифрувати&lt;br&gt; &lt;/font&gt;&lt;font style=&quot;font-size: 11px;&quot;&gt;3 - закінчити роботу&lt;/font&gt;&lt;/span&gt;&lt;/h4&gt;" style="shape=parallelogram;perimeter=parallelogramPerimeter;whiteSpace=wrap;html=1;fixedSize=1;labelBackgroundColor=none;fontColor=#FFFFFF;" parent="1" vertex="1"><mxGeometry x="-230" y="900" width="300" height="90" as="geometry"/></mxCell><mxCell id="lvYG5XQPU5QrbWgYbbsi-105" style="edgeStyle=orthogonalEdgeStyle;rounded=0;orthogonalLoop=1;jettySize=auto;html=1;entryX=0.5;entryY=0;entryDx=0;entryDy=0;labelBackgroundColor=none;fontColor=#FFFFFF;" parent="1" source="lvYG5XQPU5QrbWgYbbsi-84" target="lvYG5XQPU5QrbWgYbbsi-83" edge="1"><mxGeometry relative="1" as="geometry"/></mxCell><mxCell id="lvYG5XQPU5QrbWgYbbsi-84" value="while(true)" style="shape=hexagon;perimeter=hexagonPerimeter2;whiteSpace=wrap;html=1;fixedSize=1;labelBackgroundColor=none;fontColor=#FFFFFF;" parent="1" vertex="1"><mxGeometry x="-140" y="820" width="120" height="60" as="geometry"/></mxCell><mxCell id="lvYG5XQPU5QrbWgYbbsi-98" style="edgeStyle=orthogonalEdgeStyle;rounded=0;orthogonalLoop=1;jettySize=auto;html=1;entryX=0;entryY=0.5;entryDx=0;entryDy=0;labelBackgroundColor=none;fontColor=#FFFFFF;" parent="1" source="lvYG5XQPU5QrbWgYbbsi-87" target="lvYG5XQPU5QrbWgYbbsi-88" edge="1"><mxGeometry relative="1" as="geometry"><mxPoint x="-430" y="1220" as="targetPoint"/><Array as="points"><mxPoint x="-440" y="1055"/><mxPoint x="-440" y="1210"/></Array></mxGeometry></mxCell><mxCell id="lvYG5XQPU5QrbWgYbbsi-87" value="int var = scannet.nextInt();" style="rounded=0;whiteSpace=wrap;html=1;labelBackgroundColor=none;fontColor=#FFFFFF;" parent="1" vertex="1"><mxGeometry x="-171.25" y="1030" width="200" height="70" as="geometry"/></mxCell><mxCell id="lvYG5XQPU5QrbWgYbbsi-99" style="edgeStyle=orthogonalEdgeStyle;rounded=0;orthogonalLoop=1;jettySize=auto;html=1;entryX=0;entryY=0.5;entryDx=0;entryDy=0;labelBackgroundColor=none;fontColor=#FFFFFF;" parent="1" source="lvYG5XQPU5QrbWgYbbsi-88" target="lvYG5XQPU5QrbWgYbbsi-89" edge="1"><mxGeometry relative="1" as="geometry"/></mxCell><mxCell id="lvYG5XQPU5QrbWgYbbsi-103" style="edgeStyle=orthogonalEdgeStyle;rounded=0;orthogonalLoop=1;jettySize=auto;html=1;entryX=1;entryY=0.5;entryDx=0;entryDy=0;labelBackgroundColor=none;fontColor=#FFFFFF;" parent="1" source="lvYG5XQPU5QrbWgYbbsi-88" target="lvYG5XQPU5QrbWgYbbsi-84" edge="1"><mxGeometry relative="1" as="geometry"><Array as="points"><mxPoint x="-305" y="1130"/><mxPoint x="110" y="1130"/><mxPoint x="110" y="850"/></Array></mxGeometry></mxCell><mxCell id="lvYG5XQPU5QrbWgYbbsi-109" style="edgeStyle=orthogonalEdgeStyle;rounded=0;orthogonalLoop=1;jettySize=auto;html=1;entryX=0.5;entryY=0;entryDx=0;entryDy=0;labelBackgroundColor=none;fontColor=#FFFFFF;" parent="1" source="lvYG5XQPU5QrbWgYbbsi-88" target="lvYG5XQPU5QrbWgYbbsi-93" edge="1"><mxGeometry relative="1" as="geometry"/></mxCell><mxCell id="lvYG5XQPU5QrbWgYbbsi-88" value="var == 1" style="rhombus;whiteSpace=wrap;html=1;labelBackgroundColor=none;fontColor=#FFFFFF;" parent="1" vertex="1"><mxGeometry x="-381" y="1160" width="151" height="100" as="geometry"/></mxCell><mxCell id="lvYG5XQPU5QrbWgYbbsi-100" style="edgeStyle=orthogonalEdgeStyle;rounded=0;orthogonalLoop=1;jettySize=auto;html=1;entryX=0;entryY=0.5;entryDx=0;entryDy=0;labelBackgroundColor=none;fontColor=#FFFFFF;" parent="1" source="lvYG5XQPU5QrbWgYbbsi-89" target="lvYG5XQPU5QrbWgYbbsi-90" edge="1"><mxGeometry relative="1" as="geometry"/></mxCell><mxCell id="lvYG5XQPU5QrbWgYbbsi-102" style="edgeStyle=orthogonalEdgeStyle;rounded=0;orthogonalLoop=1;jettySize=auto;html=1;entryX=1;entryY=0.5;entryDx=0;entryDy=0;labelBackgroundColor=none;fontColor=#FFFFFF;" parent="1" source="lvYG5XQPU5QrbWgYbbsi-89" target="lvYG5XQPU5QrbWgYbbsi-84" edge="1"><mxGeometry relative="1" as="geometry"><Array as="points"><mxPoint x="-47" y="1130"/><mxPoint x="150" y="1130"/><mxPoint x="150" y="850"/></Array></mxGeometry></mxCell><mxCell id="lvYG5XQPU5QrbWgYbbsi-110" style="edgeStyle=orthogonalEdgeStyle;rounded=0;orthogonalLoop=1;jettySize=auto;html=1;entryX=0.5;entryY=0;entryDx=0;entryDy=0;labelBackgroundColor=none;fontColor=#FFFFFF;" parent="1" source="lvYG5XQPU5QrbWgYbbsi-89" target="lvYG5XQPU5QrbWgYbbsi-96" edge="1"><mxGeometry relative="1" as="geometry"/></mxCell><mxCell id="lvYG5XQPU5QrbWgYbbsi-89" value="var == 2" style="rhombus;whiteSpace=wrap;html=1;labelBackgroundColor=none;fontColor=#FFFFFF;" parent="1" vertex="1"><mxGeometry x="-122.25" y="1160" width="151" height="100" as="geometry"/></mxCell><mxCell id="lvYG5XQPU5QrbWgYbbsi-101" style="edgeStyle=orthogonalEdgeStyle;rounded=0;orthogonalLoop=1;jettySize=auto;html=1;entryX=1;entryY=0.5;entryDx=0;entryDy=0;exitX=0.5;exitY=0;exitDx=0;exitDy=0;labelBackgroundColor=none;fontColor=#FFFFFF;" parent="1" source="lvYG5XQPU5QrbWgYbbsi-90" target="lvYG5XQPU5QrbWgYbbsi-84" edge="1"><mxGeometry relative="1" as="geometry"/></mxCell><mxCell id="lvYG5XQPU5QrbWgYbbsi-90" value="var == 3" style="rhombus;whiteSpace=wrap;html=1;labelBackgroundColor=none;fontColor=#FFFFFF;" parent="1" vertex="1"><mxGeometry x="130" y="1160" width="151" height="100" as="geometry"/></mxCell><mxCell id="lvYG5XQPU5QrbWgYbbsi-112" style="edgeStyle=orthogonalEdgeStyle;rounded=0;orthogonalLoop=1;jettySize=auto;html=1;exitX=0.5;exitY=1;exitDx=0;exitDy=0;labelBackgroundColor=none;fontColor=#FFFFFF;" parent="1" source="lvYG5XQPU5QrbWgYbbsi-93" edge="1"><mxGeometry relative="1" as="geometry"><mxPoint x="-180" y="1530" as="targetPoint"/></mxGeometry></mxCell><mxCell id="lvYG5XQPU5QrbWgYbbsi-93" value="&lt;div style=&quot;font-family: &amp;quot;JetBrains Mono&amp;quot;, monospace;&quot;&gt;&lt;pre style=&quot;&quot;&gt;&lt;font style=&quot;&quot;&gt;encryptOrDecrypt(term,true);&lt;/font&gt;&lt;/pre&gt;&lt;/div&gt;" style="ellipse;whiteSpace=wrap;html=1;labelBackgroundColor=none;fontColor=#FFFFFF;" parent="1" vertex="1"><mxGeometry x="-409" y="1290" width="207" height="80" as="geometry"/></mxCell><mxCell id="lvYG5XQPU5QrbWgYbbsi-113" style="edgeStyle=orthogonalEdgeStyle;rounded=0;orthogonalLoop=1;jettySize=auto;html=1;exitX=0.5;exitY=1;exitDx=0;exitDy=0;labelBackgroundColor=none;fontColor=#FFFFFF;" parent="1" source="lvYG5XQPU5QrbWgYbbsi-96" edge="1"><mxGeometry relative="1" as="geometry"><mxPoint x="-180" y="1530" as="targetPoint"/><Array as="points"><mxPoint x="-46" y="1430"/><mxPoint x="-179" y="1430"/></Array></mxGeometry></mxCell><mxCell id="lvYG5XQPU5QrbWgYbbsi-96" value="&lt;div style=&quot;font-family: &amp;quot;JetBrains Mono&amp;quot;, monospace;&quot;&gt;&lt;pre style=&quot;&quot;&gt;&lt;font style=&quot;&quot;&gt;encryptOrDecrypt(term,false);&lt;/font&gt;&lt;/pre&gt;&lt;/div&gt;" style="ellipse;whiteSpace=wrap;html=1;labelBackgroundColor=none;fontColor=#FFFFFF;" parent="1" vertex="1"><mxGeometry x="-150" y="1290" width="207" height="80" as="geometry"/></mxCell><mxCell id="lvYG5XQPU5QrbWgYbbsi-97" value="&lt;div style=&quot;font-family: &amp;quot;JetBrains Mono&amp;quot;, monospace;&quot;&gt;&lt;pre style=&quot;&quot;&gt;&lt;font style=&quot;&quot;&gt;кінець&lt;/font&gt;&lt;/pre&gt;&lt;/div&gt;" style="ellipse;whiteSpace=wrap;html=1;labelBackgroundColor=none;fontColor=#FFFFFF;" parent="1" vertex="1"><mxGeometry x="110" y="1300" width="207" height="80" as="geometry"/></mxCell><mxCell id="lvYG5XQPU5QrbWgYbbsi-108" style="edgeStyle=orthogonalEdgeStyle;rounded=0;orthogonalLoop=1;jettySize=auto;html=1;entryX=0.542;entryY=-0.037;entryDx=0;entryDy=0;entryPerimeter=0;labelBackgroundColor=none;fontColor=#FFFFFF;" parent="1" source="lvYG5XQPU5QrbWgYbbsi-60" target="lvYG5XQPU5QrbWgYbbsi-81" edge="1"><mxGeometry relative="1" as="geometry"/></mxCell><mxCell id="lvYG5XQPU5QrbWgYbbsi-111" style="edgeStyle=orthogonalEdgeStyle;rounded=0;orthogonalLoop=1;jettySize=auto;html=1;entryX=0.471;entryY=-0.012;entryDx=0;entryDy=0;entryPerimeter=0;labelBackgroundColor=none;fontColor=#FFFFFF;" parent="1" source="lvYG5XQPU5QrbWgYbbsi-90" target="lvYG5XQPU5QrbWgYbbsi-97" edge="1"><mxGeometry relative="1" as="geometry"/></mxCell><mxCell id="lvYG5XQPU5QrbWgYbbsi-149" style="edgeStyle=orthogonalEdgeStyle;rounded=0;orthogonalLoop=1;jettySize=auto;html=1;entryX=0.5;entryY=0;entryDx=0;entryDy=0;labelBackgroundColor=none;fontColor=#FFFFFF;" parent="1" source="lvYG5XQPU5QrbWgYbbsi-114" target="lvYG5XQPU5QrbWgYbbsi-115" edge="1"><mxGeometry relative="1" as="geometry"/></mxCell><mxCell id="lvYG5XQPU5QrbWgYbbsi-114" value="Введення:&lt;br&gt;String i&lt;br&gt;int shift&lt;br&gt;StringBuilder result" style="shape=parallelogram;perimeter=parallelogramPerimeter;whiteSpace=wrap;html=1;fixedSize=1;labelBackgroundColor=none;fontColor=#FFFFFF;" parent="1" vertex="1"><mxGeometry x="-300" y="1530" width="240" height="80" as="geometry"/></mxCell><mxCell id="lvYG5XQPU5QrbWgYbbsi-148" style="edgeStyle=orthogonalEdgeStyle;rounded=0;orthogonalLoop=1;jettySize=auto;html=1;entryX=0.5;entryY=0;entryDx=0;entryDy=0;labelBackgroundColor=none;fontColor=#FFFFFF;" parent="1" source="lvYG5XQPU5QrbWgYbbsi-115" target="lvYG5XQPU5QrbWgYbbsi-116" edge="1"><mxGeometry relative="1" as="geometry"/></mxCell><mxCell id="lvYG5XQPU5QrbWgYbbsi-115" value="i = term;&lt;br&gt;shift = 1;&lt;br&gt;result = new StringBuilder();" style="rounded=0;whiteSpace=wrap;html=1;labelBackgroundColor=none;fontColor=#FFFFFF;" parent="1" vertex="1"><mxGeometry x="-270" y="1650" width="190" height="70" as="geometry"/></mxCell><mxCell id="lvYG5XQPU5QrbWgYbbsi-125" style="edgeStyle=orthogonalEdgeStyle;rounded=0;orthogonalLoop=1;jettySize=auto;html=1;entryX=0.5;entryY=0;entryDx=0;entryDy=0;labelBackgroundColor=none;fontColor=#FFFFFF;" parent="1" source="lvYG5XQPU5QrbWgYbbsi-116" target="lvYG5XQPU5QrbWgYbbsi-117" edge="1"><mxGeometry relative="1" as="geometry"/></mxCell><mxCell id="lvYG5XQPU5QrbWgYbbsi-116" value="handle" style="rhombus;whiteSpace=wrap;html=1;labelBackgroundColor=none;fontColor=#FFFFFF;" parent="1" vertex="1"><mxGeometry x="-210" y="1760" width="160" height="100" as="geometry"/></mxCell><mxCell id="lvYG5XQPU5QrbWgYbbsi-124" style="edgeStyle=orthogonalEdgeStyle;rounded=0;orthogonalLoop=1;jettySize=auto;html=1;entryX=0.5;entryY=0;entryDx=0;entryDy=0;labelBackgroundColor=none;fontColor=#FFFFFF;" parent="1" source="lvYG5XQPU5QrbWgYbbsi-117" target="lvYG5XQPU5QrbWgYbbsi-119" edge="1"><mxGeometry relative="1" as="geometry"/></mxCell><mxCell id="lvYG5XQPU5QrbWgYbbsi-144" style="edgeStyle=orthogonalEdgeStyle;rounded=0;orthogonalLoop=1;jettySize=auto;html=1;entryX=0;entryY=0.5;entryDx=0;entryDy=0;labelBackgroundColor=none;fontColor=#FFFFFF;" parent="1" source="lvYG5XQPU5QrbWgYbbsi-117" target="lvYG5XQPU5QrbWgYbbsi-142" edge="1"><mxGeometry relative="1" as="geometry"><Array as="points"><mxPoint x="-910" y="1910"/><mxPoint x="-910" y="2365"/></Array></mxGeometry></mxCell><mxCell id="lvYG5XQPU5QrbWgYbbsi-117" value="&lt;div style=&quot;font-family: &amp;quot;JetBrains Mono&amp;quot;, monospace;&quot;&gt;&lt;pre style=&quot;&quot;&gt;&lt;font style=&quot;&quot;&gt;for (char ch : i.toCharArray())&lt;/font&gt;&lt;/pre&gt;&lt;/div&gt;" style="shape=hexagon;perimeter=hexagonPerimeter2;whiteSpace=wrap;html=1;fixedSize=1;labelBackgroundColor=none;fontColor=#FFFFFF;" parent="1" vertex="1"><mxGeometry x="-550" y="1860" width="220" height="100" as="geometry"/></mxCell><mxCell id="lvYG5XQPU5QrbWgYbbsi-122" style="edgeStyle=orthogonalEdgeStyle;rounded=0;orthogonalLoop=1;jettySize=auto;html=1;entryX=0.5;entryY=0;entryDx=0;entryDy=0;exitX=0;exitY=0.5;exitDx=0;exitDy=0;labelBackgroundColor=none;fontColor=#FFFFFF;" parent="1" source="lvYG5XQPU5QrbWgYbbsi-119" target="lvYG5XQPU5QrbWgYbbsi-120" edge="1"><mxGeometry relative="1" as="geometry"/></mxCell><mxCell id="lvYG5XQPU5QrbWgYbbsi-123" style="edgeStyle=orthogonalEdgeStyle;rounded=0;orthogonalLoop=1;jettySize=auto;html=1;entryX=0.5;entryY=0;entryDx=0;entryDy=0;labelBackgroundColor=none;fontColor=#FFFFFF;" parent="1" source="lvYG5XQPU5QrbWgYbbsi-119" target="lvYG5XQPU5QrbWgYbbsi-121" edge="1"><mxGeometry relative="1" as="geometry"/></mxCell><mxCell id="lvYG5XQPU5QrbWgYbbsi-119" value="Character.isLetter(ch)" style="rhombus;whiteSpace=wrap;html=1;labelBackgroundColor=none;fontColor=#FFFFFF;" parent="1" vertex="1"><mxGeometry x="-520" y="2010" width="160" height="100" as="geometry"/></mxCell><mxCell id="lvYG5XQPU5QrbWgYbbsi-120" value="&lt;div style=&quot;font-family: &amp;quot;JetBrains Mono&amp;quot;, monospace;&quot;&gt;&lt;pre style=&quot;&quot;&gt;char shiftedChar = (char) (((ch -'a'+ (shift) )%26)+'a');&lt;br&gt;result.append(shiftedChar);&lt;/pre&gt;&lt;/div&gt;" style="rounded=0;whiteSpace=wrap;html=1;labelBackgroundColor=none;fontColor=#FFFFFF;" parent="1" vertex="1"><mxGeometry x="-870" y="2130" width="390" height="90" as="geometry"/></mxCell><mxCell id="lvYG5XQPU5QrbWgYbbsi-121" value="&lt;div style=&quot;font-family: &amp;quot;JetBrains Mono&amp;quot;, monospace;&quot;&gt;&lt;pre style=&quot;&quot;&gt;&lt;div style=&quot;font-family: &amp;quot;JetBrains Mono&amp;quot;, monospace;&quot;&gt;&lt;pre style=&quot;&quot;&gt;&lt;font style=&quot;&quot;&gt;result.append(ch);&lt;/font&gt;&lt;/pre&gt;&lt;/div&gt;&lt;/pre&gt;&lt;/div&gt;" style="rounded=0;whiteSpace=wrap;html=1;labelBackgroundColor=none;fontColor=#FFFFFF;" parent="1" vertex="1"><mxGeometry x="-340" y="2130" width="200" height="80" as="geometry"/></mxCell><mxCell id="lvYG5XQPU5QrbWgYbbsi-132" style="edgeStyle=orthogonalEdgeStyle;rounded=0;orthogonalLoop=1;jettySize=auto;html=1;entryX=0.5;entryY=0;entryDx=0;entryDy=0;exitX=1;exitY=0.5;exitDx=0;exitDy=0;labelBackgroundColor=none;fontColor=#FFFFFF;" parent="1" source="lvYG5XQPU5QrbWgYbbsi-116" target="lvYG5XQPU5QrbWgYbbsi-134" edge="1"><mxGeometry relative="1" as="geometry"><mxPoint x="630" y="1800" as="sourcePoint"/></mxGeometry></mxCell><mxCell id="lvYG5XQPU5QrbWgYbbsi-133" style="edgeStyle=orthogonalEdgeStyle;rounded=0;orthogonalLoop=1;jettySize=auto;html=1;entryX=0.5;entryY=0;entryDx=0;entryDy=0;labelBackgroundColor=none;fontColor=#FFFFFF;" parent="1" source="lvYG5XQPU5QrbWgYbbsi-134" target="lvYG5XQPU5QrbWgYbbsi-137" edge="1"><mxGeometry relative="1" as="geometry"/></mxCell><mxCell id="lvYG5XQPU5QrbWgYbbsi-143" style="edgeStyle=orthogonalEdgeStyle;rounded=0;orthogonalLoop=1;jettySize=auto;html=1;entryX=1;entryY=0.5;entryDx=0;entryDy=0;labelBackgroundColor=none;fontColor=#FFFFFF;" parent="1" source="lvYG5XQPU5QrbWgYbbsi-134" target="lvYG5XQPU5QrbWgYbbsi-142" edge="1"><mxGeometry relative="1" as="geometry"><Array as="points"><mxPoint x="720" y="1920"/><mxPoint x="720" y="2365"/></Array></mxGeometry></mxCell><mxCell id="lvYG5XQPU5QrbWgYbbsi-134" value="&lt;div style=&quot;font-family: &amp;quot;JetBrains Mono&amp;quot;, monospace;&quot;&gt;&lt;pre style=&quot;&quot;&gt;&lt;font style=&quot;&quot;&gt;for (char ch : i.toCharArray())&lt;/font&gt;&lt;/pre&gt;&lt;/div&gt;" style="shape=hexagon;perimeter=hexagonPerimeter2;whiteSpace=wrap;html=1;fixedSize=1;labelBackgroundColor=none;fontColor=#FFFFFF;" parent="1" vertex="1"><mxGeometry x="270" y="1870" width="220" height="100" as="geometry"/></mxCell><mxCell id="lvYG5XQPU5QrbWgYbbsi-135" style="edgeStyle=orthogonalEdgeStyle;rounded=0;orthogonalLoop=1;jettySize=auto;html=1;entryX=0.5;entryY=0;entryDx=0;entryDy=0;exitX=0;exitY=0.5;exitDx=0;exitDy=0;labelBackgroundColor=none;fontColor=#FFFFFF;" parent="1" source="lvYG5XQPU5QrbWgYbbsi-137" target="lvYG5XQPU5QrbWgYbbsi-138" edge="1"><mxGeometry relative="1" as="geometry"/></mxCell><mxCell id="lvYG5XQPU5QrbWgYbbsi-136" style="edgeStyle=orthogonalEdgeStyle;rounded=0;orthogonalLoop=1;jettySize=auto;html=1;entryX=0.5;entryY=0;entryDx=0;entryDy=0;labelBackgroundColor=none;fontColor=#FFFFFF;" parent="1" source="lvYG5XQPU5QrbWgYbbsi-137" target="lvYG5XQPU5QrbWgYbbsi-139" edge="1"><mxGeometry relative="1" as="geometry"/></mxCell><mxCell id="lvYG5XQPU5QrbWgYbbsi-137" value="Character.isLetter(ch)" style="rhombus;whiteSpace=wrap;html=1;labelBackgroundColor=none;fontColor=#FFFFFF;" parent="1" vertex="1"><mxGeometry x="300" y="2010" width="160" height="100" as="geometry"/></mxCell><mxCell id="lvYG5XQPU5QrbWgYbbsi-138" value="&lt;div style=&quot;font-family: &amp;quot;JetBrains Mono&amp;quot;, monospace;&quot;&gt;&lt;pre style=&quot;&quot;&gt;char shiftedChar = (char) (((ch -'a'+ (26-shift) )%26)+'a');&lt;br&gt;result.append(shiftedChar);&lt;/pre&gt;&lt;/div&gt;" style="rounded=0;whiteSpace=wrap;html=1;labelBackgroundColor=none;fontColor=#FFFFFF;" parent="1" vertex="1"><mxGeometry x="-40" y="2125" width="400" height="90" as="geometry"/></mxCell><mxCell id="lvYG5XQPU5QrbWgYbbsi-139" value="&lt;div style=&quot;font-family: &amp;quot;JetBrains Mono&amp;quot;, monospace;&quot;&gt;&lt;pre style=&quot;&quot;&gt;&lt;div style=&quot;font-family: &amp;quot;JetBrains Mono&amp;quot;, monospace;&quot;&gt;&lt;pre style=&quot;&quot;&gt;&lt;font style=&quot;&quot;&gt;result.append(ch);&lt;/font&gt;&lt;/pre&gt;&lt;/div&gt;&lt;/pre&gt;&lt;/div&gt;" style="rounded=0;whiteSpace=wrap;html=1;labelBackgroundColor=none;fontColor=#FFFFFF;" parent="1" vertex="1"><mxGeometry x="480" y="2130" width="200" height="80" as="geometry"/></mxCell><mxCell id="lvYG5XQPU5QrbWgYbbsi-147" style="edgeStyle=orthogonalEdgeStyle;rounded=0;orthogonalLoop=1;jettySize=auto;html=1;entryX=0.5;entryY=0;entryDx=0;entryDy=0;labelBackgroundColor=none;fontColor=#FFFFFF;" parent="1" source="lvYG5XQPU5QrbWgYbbsi-142" target="lvYG5XQPU5QrbWgYbbsi-146" edge="1"><mxGeometry relative="1" as="geometry"/></mxCell><mxCell id="lvYG5XQPU5QrbWgYbbsi-142" value="Виведення:&lt;br&gt;result" style="shape=parallelogram;perimeter=parallelogramPerimeter;whiteSpace=wrap;html=1;fixedSize=1;labelBackgroundColor=none;fontColor=#FFFFFF;" parent="1" vertex="1"><mxGeometry x="-265" y="2310" width="350" height="110" as="geometry"/></mxCell><mxCell id="lvYG5XQPU5QrbWgYbbsi-146" value="&lt;div style=&quot;font-family: &amp;quot;JetBrains Mono&amp;quot;, monospace;&quot;&gt;&lt;pre style=&quot;&quot;&gt;&lt;font style=&quot;&quot;&gt;кінець&lt;/font&gt;&lt;/pre&gt;&lt;/div&gt;" style="ellipse;whiteSpace=wrap;html=1;labelBackgroundColor=none;fontColor=#FFFFFF;" parent="1" vertex="1"><mxGeometry x="-183.5" y="2500" width="207" height="80" as="geometry"/></mxCell><mxCell id="lvYG5XQPU5QrbWgYbbsi-150" value="Так" style="text;html=1;align=center;verticalAlign=middle;resizable=0;points=[];autosize=1;strokeColor=none;fillColor=none;strokeWidth=3;labelBackgroundColor=none;fontColor=#FFFFFF;" parent="1" vertex="1"><mxGeometry x="-280" y="1250" width="40" height="30" as="geometry"/></mxCell><mxCell id="lvYG5XQPU5QrbWgYbbsi-151" value="Так" style="text;html=1;align=center;verticalAlign=middle;resizable=0;points=[];autosize=1;strokeColor=none;fillColor=none;strokeWidth=3;labelBackgroundColor=none;fontColor=#FFFFFF;" parent="1" vertex="1"><mxGeometry x="-40" y="1250" width="40" height="30" as="geometry"/></mxCell><mxCell id="lvYG5XQPU5QrbWgYbbsi-152" value="Так" style="text;html=1;align=center;verticalAlign=middle;resizable=0;points=[];autosize=1;strokeColor=none;fillColor=none;strokeWidth=3;labelBackgroundColor=none;fontColor=#FFFFFF;" parent="1" vertex="1"><mxGeometry x="210" y="1250" width="40" height="30" as="geometry"/></mxCell><mxCell id="lvYG5XQPU5QrbWgYbbsi-155" value="ні" style="text;html=1;align=center;verticalAlign=middle;resizable=0;points=[];autosize=1;strokeColor=none;fillColor=none;strokeWidth=3;labelBackgroundColor=none;fontColor=#FFFFFF;" parent="1" vertex="1"><mxGeometry x="-300" y="1140" width="30" height="30" as="geometry"/></mxCell><mxCell id="lvYG5XQPU5QrbWgYbbsi-156" value="ні" style="text;html=1;align=center;verticalAlign=middle;resizable=0;points=[];autosize=1;strokeColor=none;fillColor=none;strokeWidth=3;labelBackgroundColor=none;fontColor=#FFFFFF;" parent="1" vertex="1"><mxGeometry x="-40" y="1140" width="30" height="30" as="geometry"/></mxCell><mxCell id="lvYG5XQPU5QrbWgYbbsi-157" value="ні" style="text;html=1;align=center;verticalAlign=middle;resizable=0;points=[];autosize=1;strokeColor=none;fillColor=none;strokeWidth=3;labelBackgroundColor=none;fontColor=#FFFFFF;" parent="1" vertex="1"><mxGeometry x="210" y="1130" width="30" height="30" as="geometry"/></mxCell><mxCell id="lvYG5XQPU5QrbWgYbbsi-158" value="ні" style="text;html=1;align=center;verticalAlign=middle;resizable=0;points=[];autosize=1;strokeColor=none;fillColor=none;strokeWidth=3;labelBackgroundColor=none;fontColor=#FFFFFF;" parent="1" vertex="1"><mxGeometry x="-70" y="1830" width="30" height="30" as="geometry"/></mxCell><mxCell id="lvYG5XQPU5QrbWgYbbsi-159" value="Так" style="text;html=1;align=center;verticalAlign=middle;resizable=0;points=[];autosize=1;strokeColor=none;fillColor=none;labelBackgroundColor=none;fontColor=#FFFFFF;" parent="1" vertex="1"><mxGeometry x="-230" y="1830" width="40" height="30" as="geometry"/></mxCell><mxCell id="lvYG5XQPU5QrbWgYbbsi-160" value="Так" style="text;html=1;align=center;verticalAlign=middle;resizable=0;points=[];autosize=1;strokeColor=none;fillColor=none;labelBackgroundColor=none;fontColor=#FFFFFF;" parent="1" vertex="1"><mxGeometry x="-540" y="2080" width="40" height="30" as="geometry"/></mxCell><mxCell id="lvYG5XQPU5QrbWgYbbsi-161" value="Так" style="text;html=1;align=center;verticalAlign=middle;resizable=0;points=[];autosize=1;strokeColor=none;fillColor=none;labelBackgroundColor=none;fontColor=#FFFFFF;" parent="1" vertex="1"><mxGeometry x="270" y="2070" width="40" height="30" as="geometry"/></mxCell><mxCell id="lvYG5XQPU5QrbWgYbbsi-162" value="ні" style="text;html=1;align=center;verticalAlign=middle;resizable=0;points=[];autosize=1;strokeColor=none;fillColor=none;strokeWidth=3;labelBackgroundColor=none;fontColor=#FFFFFF;" parent="1" vertex="1"><mxGeometry x="-370" y="2080" width="30" height="30" as="geometry"/></mxCell><mxCell id="lvYG5XQPU5QrbWgYbbsi-163" value="ні" style="text;html=1;align=center;verticalAlign=middle;resizable=0;points=[];autosize=1;strokeColor=none;fillColor=none;strokeWidth=3;labelBackgroundColor=none;fontColor=#FFFFFF;" parent="1" vertex="1"><mxGeometry x="440" y="2070" width="30" height="30" as="geometry"/></mxCell></root></mxGraphModel></diagram></mxfile>